<?xml version="1.0" encoding="UTF-8"?>
<svg id="Layer_1" data-name="Layer 1" xmlns="http://www.w3.org/2000/svg" viewBox="0 0 651.05 240.55">
  <defs>
    <style>
      .cls-1 {
        fill: none;
      }

      .cls-1, .cls-2, .cls-3 {
        stroke: #231f20;
        stroke-miterlimit: 10;
      }

      .cls-2 {
        fill: #000;
      }

      .cls-3 {
        fill: #fff;
      }
    </style>
  </defs>
  <path class="cls-3" d="M646.03,89.66v64.29c-3.74,40.93-145.04,73.84-318.8,73.84S12.48,194.95,8.45,154.08v-64.28c1.07,10.83,11.78,21.09,30.16,30.34.04.01.08.03.12.05-.1.05-.19.09-.28.14,50.99,25.63,161.06,43.37,288.63,43.37s237.65-17.74,288.63-43.37c-.04-.02-.08-.04-.12-.06.09-.05.17-.09.26-.13,18.47-9.28,29.19-19.6,30.18-30.48Z"/>
  <path class="cls-3" d="M8.45,150.47v3.61c-.06-.6-.09-1.2-.09-1.8s.03-1.21.09-1.81Z"/>
  <path class="cls-3" d="M615.59,120.27s.08.04.12.06c-50.98,25.63-161.06,43.37-288.63,43.37s-237.64-17.74-288.63-43.37c.09-.05.18-.09.28-.14-.04-.02-.08-.04-.12-.05,50.99-25.64,161.05-43.37,288.62-43.37s237.63,17.73,288.62,43.37c-.09.04-.17.08-.26.13Z"/>
  <path class="cls-3" d="M646.11,152.28c0,.56-.03,1.11-.08,1.67v-3.34c.05.56.08,1.11.08,1.67Z"/>
  <path class="cls-3" d="M646.11,87.99c0,.56-.03,1.11-.08,1.67-.99,10.88-11.71,21.2-30.18,30.48-.09.04-.17.08-.26.13-51.11,25.55-161.02,43.23-288.36,43.23s-237.46-17.71-288.5-43.31c-.04-.02-.08-.04-.12-.05-18.38-9.25-29.09-19.51-30.16-30.34-.06-.6-.09-1.21-.09-1.81C8.36,46.29,151.12,12.48,327.23,12.48s318.88,33.81,318.88,75.51Z"/>
  <line class="cls-1" x1="8.45" y1="89.8" x2="8.45" y2="87.32"/>
  <line class="cls-1" x1="646.03" y1="154.08" x2="646.03" y2="153.95"/>
  <line class="cls-1" x1="646.03" y1="89.66" x2="646.03" y2="87.32"/>
  <path class="cls-2" d="M615.71,120.33c-50.98,25.63-161.06,43.37-288.63,43.37s-237.64-17.74-288.63-43.37c.09-.05.18-.09.28-.14,51.11-25.55,161.01-43.23,288.35-43.23s237.48,17.71,288.51,43.31c.04.02.08.04.12.06Z"/>
</svg>